<svg width="61" height="60" viewBox="0 0 61 60" fill="none" xmlns="http://www.w3.org/2000/svg">
<path d="M51.356 6.666C50.976 6.242 50.434 6 49.866 6H11.134C10.566 6 10.024 6.242 9.64404 6.666C9.26404 7.09 9.08404 7.656 9.14604 8.22L13.55 47.866C13.638 48.672 14.208 49.346 14.988 49.568L29.948 53.842C30.128 53.894 30.314 53.92 30.498 53.92C30.682 53.92 30.868 53.894 31.048 53.842L46.008 49.568C46.788 49.346 47.356 48.672 47.446 47.866L51.852 8.22C51.916 7.656 51.736 7.09 51.356 6.666ZM41.532 26.148L40.64 40.718L30.564 44.012L20.488 40.718L20.106 33.75H25.206L25.334 36.918L30.564 38.692L35.794 36.918L36.176 31.218H24.952L24.698 26.15H36.432L36.814 21.082H19.212L18.83 16.012H42.17L41.532 26.148Z" fill="black"/>
</svg>
