<svg width="61" height="60" viewBox="0 0 61 60" fill="none" xmlns="http://www.w3.org/2000/svg">
<path d="M51.356 6.666C50.976 6.242 50.434 6 49.866 6H11.134C10.566 6 10.024 6.242 9.64404 6.666C9.26404 7.09 9.08404 7.656 9.14604 8.22L13.55 47.866C13.638 48.672 14.208 49.346 14.988 49.568L29.948 53.842C30.128 53.894 30.314 53.92 30.498 53.92C30.682 53.92 30.868 53.894 31.048 53.842L46.008 49.568C46.788 49.346 47.356 48.672 47.446 47.866L51.852 8.22C51.916 7.656 51.736 7.09 51.356 6.666ZM41.758 20.86H23.898L24.322 25.944H41.328L40.052 40.964L30.506 44L30.412 43.97L20.972 40.96L20.456 34.84H25.08L25.282 37.218L30.556 38.38L35.738 37.216L36.288 30.79H20.108L18.856 16H42.174L41.758 20.86Z" fill="black"/>
</svg>
