<svg width="60" height="60" viewBox="0 0 60 60" fill="none" xmlns="http://www.w3.org/2000/svg">
<path d="M12 8C9.79 8 8 9.79 8 12V48C8 50.21 9.79 52 12 52H48C50.21 52 52 50.21 52 48V12C52 9.79 50.21 8 48 8H12ZM12.4219 24H17.6758C20.2538 24 22 25.6798 22 28.2578C22 30.8098 20.1622 32.4805 17.4922 32.4805H15.4727V36H12.4219V24ZM24.5586 24H27.6133V28.707H32.3945V24H35.4375V36H32.3945V31.1602H27.6133V36H24.5586V24ZM38.4219 24H43.6758C46.2538 24 48 25.6798 48 28.2578C48 30.8098 46.1622 32.4805 43.4922 32.4805H41.4727V36H38.4219V24ZM15.4727 26.3477V30.1797H16.8516C18.1496 30.1797 18.9141 29.5155 18.9141 28.2695C18.9141 27.0035 18.1591 26.3477 16.8711 26.3477H15.4727ZM41.4727 26.3477V30.1797H42.8516C44.1496 30.1797 44.9141 29.5155 44.9141 28.2695C44.9141 27.0035 44.1591 26.3477 42.8711 26.3477H41.4727Z" fill="black"/>
</svg>
