<svg width="60" height="60" viewBox="0 0 60 60" fill="none" xmlns="http://www.w3.org/2000/svg">
<path d="M12 8C9.79 8 8 9.79 8 12V48C8 50.21 9.79 52 12 52H48C50.21 52 52 50.21 52 48V12C52 9.79 50.21 8 48 8H12ZM30.2422 21.7773C33.2102 21.7773 34.3672 25.0318 34.3672 28.8398C34.3672 32.5078 33.5251 34.6531 32.1211 35.3711V35.4609C33.0391 35.8689 34.015 36.1821 34.875 36.4961L34.0781 38.2227C32.9281 37.7527 31.5373 37.0513 30.6133 36.5273C30.3313 36.3753 30.1275 36.2656 30.0195 36.2656C27.4515 36.2656 25.7852 33.7481 25.7852 28.9961C25.7852 24.7821 27.3882 21.7773 30.2422 21.7773ZM20.3789 21.8164C21.2909 21.8164 22.1142 22.088 22.4922 22.332L22.0781 24.2578C21.6941 24.0058 21.0921 23.7734 20.3281 23.7734C19.0541 23.7734 18.4531 24.6403 18.4531 25.4883C18.4531 26.5863 19.015 27.0856 20.457 28.0156C22.255 29.1796 22.9727 30.5503 22.9727 32.0703C22.9707 34.6043 21.1472 36.2227 18.6172 36.2227C17.5532 36.2227 16.4928 35.9248 16.0508 35.6328L16.4297 33.7031C16.9577 34.0211 17.8751 34.2695 18.6211 34.2695C20.0011 34.2695 20.7578 33.4607 20.7578 32.3047C20.7578 31.1607 20.0603 30.5168 18.9023 29.7188C17.3383 28.7148 16.2344 27.3073 16.2344 25.7773C16.2344 23.5653 17.7369 21.8164 20.3789 21.8164ZM38 21.9453H40.2383V34.1992H44.0234V36.0977H38V21.9453ZM30.1172 23.7305C28.6692 23.7305 28.1013 26.2907 28.1133 28.9727C28.0893 31.8087 28.6112 34.3125 30.1172 34.3125C31.5572 34.3125 32.0391 31.8115 32.0391 28.9375C32.0391 26.2715 31.5972 23.7305 30.1172 23.7305Z" fill="black"/>
</svg>
