<svg width="61" height="60" viewBox="0 0 61 60" fill="none" xmlns="http://www.w3.org/2000/svg">
<path d="M27.75 5.25C16.25 6.5 7.00002 15.75 5.75002 27C4.50002 38.75 11.25 49.25 21.5 53.25C22.25 53.5 23 53 23 52V48C23 48 22 48.25 20.75 48.25C17.25 48.25 15.75 45.25 15.5 43.5C15.25 42.5 14.75 41.75 14 41C13.25 40.75 13 40.75 13 40.5C13 40 13.75 40 14 40C15.5 40 16.75 41.75 17.25 42.5C18.5 44.5 20 45 20.75 45C21.75 45 22.5 44.75 23 44.5C23.25 42.75 24 41 25.5 40C19.75 38.75 15.5 35.5 15.5 30C15.5 27.25 16.75 24.5 18.5 22.5C18.25 22 18 20.75 18 19C18 18 18 16.5 18.75 15C18.75 15 22.25 15 25.75 18.25C27 17.75 28.75 17.5 30.5 17.5C32.25 17.5 34 17.75 35.5 18.25C38.75 15 42.5 15 42.5 15C43 16.5 43 18 43 19C43 21 42.75 22 42.5 22.5C44.25 24.5 45.5 27 45.5 30C45.5 35.5 41.25 38.75 35.5 40C37 41.25 38 43.5 38 45.75V52.25C38 53 38.75 53.75 39.75 53.5C49 49.75 55.5 40.75 55.5 30.25C55.5 15.25 42.75 3.5 27.75 5.25Z" fill="black"/>
</svg>
