<svg width="60" height="60" viewBox="0 0 60 60" fill="none" xmlns="http://www.w3.org/2000/svg">
<path d="M33.252 5.00977C32.7149 4.97071 32.1094 5.06836 31.5723 5.25391C29.3946 5.97657 28.2618 8.30079 28.9844 10.4688L30.7227 15.5664L20.8887 18.8672L19.2676 13.9453C18.545 11.7773 16.2208 10.6445 14.0528 11.3672C11.8848 12.0898 10.6836 14.4141 11.4161 16.582L13.0372 21.4453L7.92974 23.1836C5.76177 23.9063 4.62896 26.2988 5.35161 28.4668C6.07427 30.6348 8.39849 31.7676 10.5665 31.0449L15.6641 29.3652L18.9649 39.1406L14.043 40.7617C11.875 41.4844 10.7422 43.8086 11.4649 45.9766C12.1973 48.1445 14.5215 49.3457 16.6895 48.6133L21.5528 47.002L23.2911 52.0996C24.0137 54.2676 26.3965 55.4004 28.5645 54.6777C30.7422 53.9551 31.8653 51.6309 31.1524 49.4629L29.4629 44.3652L39.2481 41.0645L40.8692 45.9863C41.5918 48.1543 43.9161 49.2871 46.084 48.5645C48.252 47.8418 49.4434 45.5078 48.7207 43.3496L47.0997 38.4863L52.1973 36.7481C54.3653 36.0156 55.5079 33.6328 54.7754 31.4649C54.0528 29.2969 51.7286 28.1641 49.5606 28.8867L44.4629 30.5664L41.1622 20.791L46.084 19.1699C48.252 18.4473 49.3946 16.1231 48.6622 13.9551C47.9395 11.7871 45.6153 10.5859 43.4473 11.3086L38.584 12.9297L36.8458 7.83204C36.2989 6.20118 34.8536 5.13672 33.252 5.00977ZM33.3106 23.4277L36.6114 33.2031L26.8262 36.5039L23.5254 26.7285L33.3106 23.4277Z" fill="black"/>
</svg>
