<svg width="24" height="24" viewBox="0 0 24 24" fill="none" xmlns="http://www.w3.org/2000/svg">
<path d="M12 1.6001C7.13995 1.6001 3.19995 5.5401 3.19995 10.4001C3.19995 16.1873 8.92221 18.9584 9.63901 19.6032C10.371 20.2616 10.9747 21.7367 11.2187 22.5735C11.3371 22.9799 11.6704 23.185 12 23.1938C12.3304 23.1842 12.6628 22.9791 12.7812 22.5735C13.0252 21.7367 13.6289 20.2624 14.3609 19.6032C15.0777 18.9584 20.7999 16.1873 20.7999 10.4001C20.7999 5.5401 16.86 1.6001 12 1.6001ZM12.0015 6.4001C12.0859 6.4001 12.1694 6.42658 12.2406 6.47978L15.4406 8.87978C15.6166 9.01258 15.6523 9.26392 15.5203 9.44072C15.4419 9.54552 15.3208 9.6001 15.2 9.6001V13.6001H12.8V11.2001H11.2V13.6001H8.79995V9.59228C8.67835 9.59228 8.55804 9.54552 8.47964 9.44072C8.34764 9.26392 8.38409 9.01258 8.56089 8.87978L11.7609 6.47978C11.8321 6.42658 11.9171 6.4001 12.0015 6.4001Z" fill="white"/>
</svg>
