<svg width="60" height="60" viewBox="0 0 60 60" fill="none" xmlns="http://www.w3.org/2000/svg">
<path d="M40.6494 2.47805C40.3448 2.4767 40.0444 2.54957 39.7743 2.69038C39.5042 2.83118 39.2725 3.03567 39.0991 3.28615L36.6504 6.71389C34.6797 5.62368 32.4139 5.00002 30 5.00002C27.5861 5.00002 25.3203 5.62368 23.3496 6.71389L20.9009 3.28615C20.722 3.0281 20.4811 2.8191 20.2005 2.67834C19.9198 2.53757 19.6082 2.46954 19.2944 2.48049C18.9537 2.49258 18.6227 2.59733 18.3371 2.78348C18.0515 2.96962 17.822 3.23012 17.6734 3.53694C17.5247 3.84377 17.4625 4.18531 17.4935 4.52484C17.5245 4.86436 17.6474 5.18902 17.8491 5.46389L20.3467 8.95998C17.8188 11.4527 16.25 14.9152 16.25 18.75H43.75C43.75 14.9152 42.1812 11.4527 39.6533 8.95998L42.1509 5.46389C42.3558 5.18517 42.4796 4.85522 42.5086 4.51052C42.5376 4.16582 42.4707 3.81981 42.3153 3.51077C42.1599 3.20172 41.922 2.94169 41.628 2.75943C41.334 2.57717 40.9953 2.47978 40.6494 2.47805ZM23.125 11.25C24.16 11.25 25 12.09 25 13.125C25 14.16 24.16 15 23.125 15C22.09 15 21.25 14.16 21.25 13.125C21.25 12.09 22.09 11.25 23.125 11.25ZM36.875 11.25C37.91 11.25 38.75 12.09 38.75 13.125C38.75 14.16 37.91 15 36.875 15C35.84 15 35 14.16 35 13.125C35 12.09 35.84 11.25 36.875 11.25ZM11.25 22.5C9.17875 22.5 7.5 24.1788 7.5 26.25V38.75C7.5 40.8213 9.17875 42.5 11.25 42.5H12.5V22.5H11.25ZM16.25 22.5V42.5C16.25 44.575 17.925 46.25 20 46.25H40C42.075 46.25 43.75 44.575 43.75 42.5V22.5H16.25ZM47.5 22.5V42.5H48.75C50.8213 42.5 52.5 40.8213 52.5 38.75V26.25C52.5 24.1788 50.8213 22.5 48.75 22.5H47.5ZM18.75 50V53.125C18.75 55.5413 20.7087 57.5 23.125 57.5C25.5413 57.5 27.5 55.5413 27.5 53.125V50H18.75ZM32.5 50V53.125C32.5 55.5413 34.4587 57.5 36.875 57.5C39.2913 57.5 41.25 55.5413 41.25 53.125V50H32.5Z" fill="white"/>
</svg>
