<svg width="40" height="40" viewBox="0 0 40 40" fill="none" xmlns="http://www.w3.org/2000/svg">
<path d="M16.6667 19.1666C17.5001 19.1666 20.0001 17.8183 20.0001 14.4849C20.0001 9.30242 15.4117 8.33325 10.2434 8.33325C9.26675 8.33325 6.28925 8.33492 4.16675 8.33409C2.78591 8.33325 1.66675 9.45325 1.66675 10.8341V29.1666C1.66675 30.5474 2.78591 31.6666 4.16675 31.6666H14.0001C17.6826 31.6666 20.8042 28.7533 20.8334 25.0708C20.8726 20.0074 16.6667 19.1666 16.6667 19.1666ZM6.66675 12.4999H12.5001C13.8809 12.4999 15.0001 13.6191 15.0001 14.9999C15.0001 16.3808 13.8809 17.4999 12.5001 17.4999H6.66675V12.4999ZM12.9167 27.4999H6.66675V21.6666H12.9167C14.5276 21.6666 15.8334 22.9724 15.8334 24.5833C15.8334 26.1941 14.5276 27.4999 12.9167 27.4999ZM37.9251 24.1666C38.6159 24.1666 39.1751 23.6074 39.1759 22.9166C39.1759 18.0841 35.8334 14.1666 30.8426 14.1666C26.2401 14.1666 22.5092 18.0841 22.5092 22.9166C22.5092 27.7491 26.2401 31.6666 30.8426 31.6666C34.9151 31.6666 37.1776 29.7616 38.2826 26.9641C38.4959 26.4249 38.0776 25.8408 37.4976 25.8408H35.4967C35.1926 25.8408 34.9234 26.0133 34.7659 26.2741C34.0042 27.5324 32.8418 28.3333 31.2768 28.3333C28.9334 28.3333 27.2268 26.5541 26.7917 24.1666H35.7267H37.9251ZM30.8426 17.4999C32.5734 17.4999 34.2509 18.8799 34.7242 20.8333H26.9967C27.6242 18.8758 29.1093 17.4999 30.8426 17.4999ZM34.5834 12.4999H27.9167C27.2267 12.4999 26.6667 11.9399 26.6667 11.2499C26.6667 10.5599 27.2267 9.99992 27.9167 9.99992H34.5834C35.2734 9.99992 35.8334 10.5599 35.8334 11.2499C35.8334 11.9399 35.2734 12.4999 34.5834 12.4999Z" fill="white"/>
</svg>
