<svg width="60" height="60" viewBox="0 0 60 60" fill="none" xmlns="http://www.w3.org/2000/svg">
<path d="M29.995 21.0963L40.9463 10.1413L35.64 4.835C34.1325 3.32875 32.13 2.5 30 2.5C27.8688 2.5 25.8663 3.33 24.3625 4.835L19.0475 10.15L29.995 21.0963ZM43.5975 12.7925L32.6463 23.7475L42.505 33.605L53.51 22.705L43.5975 12.7925ZM27.3438 23.7488L16.3963 12.8025L4.835 24.3625C3.32875 25.8688 2.5 27.8713 2.5 30C2.5 32.1288 3.32875 34.1325 4.835 35.6375L10.1475 40.95L27.3438 23.7488ZM45.1575 36.2563L49.8525 40.95L55.1638 35.6388C56.6575 34.145 57.4863 32.1588 57.4988 30.0513C57.5125 28.3813 57.0075 26.79 56.0688 25.4463L45.1575 36.2563ZM29.995 26.3988L12.7988 43.6013L24.3613 55.165C25.8663 56.67 27.8688 57.5 30 57.5C32.1313 57.5 34.1338 56.67 35.6375 55.165L47.2013 43.6025L29.995 26.3988Z" fill="white"/>
</svg>
