<svg width="60" height="60" viewBox="0 0 60 60" fill="none" xmlns="http://www.w3.org/2000/svg">
<path d="M50.856 6.66624C50.476 6.24224 49.934 6.00024 49.366 6.00024H10.634C10.066 6.00024 9.52404 6.24224 9.14404 6.66624C8.76404 7.09024 8.58404 7.65624 8.64604 8.22024L13.05 47.8662C13.138 48.6722 13.708 49.3462 14.488 49.5682L29.448 53.8422C29.628 53.8942 29.814 53.9202 29.998 53.9202C30.182 53.9202 30.368 53.8942 30.548 53.8422L45.508 49.5682C46.288 49.3462 46.856 48.6722 46.946 47.8662L51.352 8.22024C51.416 7.65624 51.236 7.09024 50.856 6.66624ZM41.032 26.1482L40.14 40.7182L30.064 44.0122L19.988 40.7182L19.606 33.7502H24.706L24.834 36.9182L30.064 38.6922L35.294 36.9182L35.676 31.2182H24.452L24.198 26.1502H35.932L36.314 21.0822H18.712L18.33 16.0122H41.67L41.032 26.1482Z" fill="#496281"/>
</svg>
