<svg width="40" height="40" viewBox="0 0 40 40" fill="none" xmlns="http://www.w3.org/2000/svg">
<path d="M28.5416 21.6666C27.3733 21.6666 26.2299 21.7691 25.1141 21.9566C26.6424 25.8966 27.8008 30.0166 28.5533 34.2774C32.5258 31.8883 35.4299 27.9041 36.3499 23.2058C33.9399 22.2166 31.3041 21.6666 28.5416 21.6666ZM21.6858 20.2041C21.2399 19.1924 20.7666 18.1949 20.2699 17.2116C16.8041 18.4758 13.0649 19.1666 9.16659 19.1666C7.19825 19.1666 5.27409 18.9808 3.40159 18.6441C3.36575 19.0924 3.33325 19.5424 3.33325 19.9999C3.33325 24.5041 5.13659 28.5899 8.05075 31.5924C10.8808 26.1941 15.7766 22.0424 21.6858 20.2041ZM22.5874 16.2541C23.1366 17.3499 23.6616 18.4599 24.1508 19.5899C25.5733 19.3149 27.0399 19.1666 28.5416 19.1666C31.3883 19.1666 34.1141 19.6866 36.6349 20.6316C36.6424 20.4199 36.6666 20.2133 36.6666 19.9999C36.6666 15.8499 35.1316 12.0574 32.6133 9.13742C29.7699 12.1033 26.3733 14.5299 22.5874 16.2541ZM9.98742 33.2916C12.7791 35.3999 16.2399 36.6666 19.9999 36.6666C22.2008 36.6666 24.2991 36.2274 26.2241 35.4491C25.4866 30.9674 24.2758 26.6458 22.6524 22.5283C17.0841 24.1899 12.4949 28.1433 9.98742 33.2916ZM30.8458 7.37075C27.9274 4.86159 24.1416 3.33325 19.9999 3.33325C18.1824 3.33325 16.4366 3.63575 14.7974 4.17575C17.2891 7.24825 19.5158 10.5433 21.4333 14.0333C24.9924 12.4316 28.1833 10.1574 30.8458 7.37075ZM3.79325 16.1749C5.53825 16.4924 7.33159 16.6666 9.16659 16.6666C12.6441 16.6666 15.9824 16.0649 19.0908 14.9724C17.1608 11.4999 14.9233 8.22159 12.4024 5.18409C8.12409 7.38659 4.92575 11.3816 3.79325 16.1749Z" fill="white"/>
</svg>
