<svg width="40" height="40" viewBox="0 0 40 40" fill="none" xmlns="http://www.w3.org/2000/svg">
<path d="M12.0833 5.83325C10.4875 5.83325 9.16659 7.15412 9.16659 8.74992V11.2353L5.16756 13.6148C4.03185 14.29 3.33325 15.5171 3.33325 16.8375V29.5833C3.33325 32.5599 5.7733 34.9999 8.74992 34.9999H31.2499C34.2265 34.9999 36.6666 32.5599 36.6666 29.5833V16.8391C36.6666 15.5179 35.9683 14.2916 34.8339 13.6165C34.8334 13.6159 34.8328 13.6154 34.8323 13.6148L30.8333 11.2369V8.74992C30.8333 7.15412 29.5124 5.83325 27.9166 5.83325H12.0833ZM12.0833 8.33325H27.9166C28.1625 8.33325 28.3333 8.50405 28.3333 8.74992V19.1389L19.9999 23.1933L11.6666 19.1389V12.1402C11.6886 12.006 11.6886 11.8691 11.6666 11.7349V8.74992C11.6666 8.50405 11.8374 8.33325 12.0833 8.33325ZM9.16659 14.1454V17.9231L5.94067 16.3541C6.04275 16.113 6.21127 15.9024 6.44523 15.7633L9.16659 14.1454ZM30.8333 14.1471L33.5546 15.7649C33.7873 15.9037 33.9551 16.1138 34.0575 16.3541L30.8333 17.9231V14.1471Z" fill="white"/>
</svg>
