<svg width="60" height="60" viewBox="0 0 60 60" fill="none" xmlns="http://www.w3.org/2000/svg">
<path d="M51.875 5H43.125C42.1925 5 41.4012 5.68625 41.2687 6.61L38.9987 22.5H35V16.875C35 16.18 34.615 15.5425 34.0013 15.2175C33.3862 14.8938 32.645 14.9337 32.0688 15.3263L21.25 22.7025V16.875C21.25 16.1838 20.8688 15.5475 20.26 15.2225C19.6512 14.895 18.9113 14.9325 18.335 15.315L9.31125 21.33C7.395 22.6087 6.25 24.7475 6.25 27.0513V50.625C6.25 51.66 7.09 52.5 8.125 52.5H51.875C52.91 52.5 53.75 51.66 53.75 50.625V6.875C53.75 5.84 52.91 5 51.875 5ZM18.75 43.75C18.75 44.44 18.19 45 17.5 45H16.25C15.56 45 15 44.44 15 43.75V31.25C15 30.56 15.56 30 16.25 30H17.5C18.19 30 18.75 30.56 18.75 31.25V43.75ZM27.5 43.75C27.5 44.44 26.94 45 26.25 45H25C24.31 45 23.75 44.44 23.75 43.75V31.25C23.75 30.56 24.31 30 25 30H26.25C26.94 30 27.5 30.56 27.5 31.25V43.75ZM36.25 43.75C36.25 44.44 35.69 45 35 45H33.75C33.06 45 32.5 44.44 32.5 43.75V31.25C32.5 30.56 33.06 30 33.75 30H35C35.69 30 36.25 30.56 36.25 31.25V43.75ZM45 43.75C45 44.44 44.44 45 43.75 45H42.5C41.81 45 41.25 44.44 41.25 43.75V31.25C41.25 30.56 41.81 30 42.5 30H43.75C44.44 30 45 30.56 45 31.25V43.75Z" fill="white"/>
</svg>
