<svg width="40" height="40" viewBox="0 0 40 40" fill="none" xmlns="http://www.w3.org/2000/svg">
<path d="M35 9.58333V30.4167C35 32.9417 32.9417 35 30.4167 35H25.8333V23.3333H28.85C29.275 23.3333 29.6333 23.0167 29.6833 22.6L29.9917 20.1C30.025 19.8667 29.95 19.625 29.7917 19.45C29.6333 19.2667 29.4083 19.1667 29.1667 19.1667H25.8333V16.25C25.8333 15.3333 26.5833 14.5833 27.5 14.5833H29.1667C29.625 14.5833 30 14.2083 30 13.75V10.9333C30 10.5083 29.6667 10.15 29.2417 10.1083C29.1917 10.1 28.0167 10 26.525 10C22.8583 10 20.8333 12.1833 20.8333 16.1417V19.1667H17.5C17.0417 19.1667 16.6667 19.5417 16.6667 20V22.5C16.6667 22.9583 17.0417 23.3333 17.5 23.3333H20.8333V35H9.58333C7.05833 35 5 32.9417 5 30.4167V9.58333C5 7.05833 7.05833 5 9.58333 5H30.4167C32.9417 5 35 7.05833 35 9.58333Z" fill="white"/>
</svg>
