<svg width="40" height="40" viewBox="0 0 40 40" fill="none" xmlns="http://www.w3.org/2000/svg">
<path d="M36.6666 19.9999C36.6666 27.4666 31.7666 33.7833 24.9999 35.8999V31.6666C24.9999 30.2416 24.3999 28.9666 23.4499 28.0499C27.8166 27.2583 29.9999 24.7166 29.9999 19.9999C29.9999 17.9583 29.5833 16.3416 28.7666 15.0833C29.1333 13.6583 29.3499 11.6333 28.3333 9.99992C26.3666 9.99992 24.9916 11.1583 24.1833 12.1083C22.9749 11.8166 21.5833 11.6666 19.9999 11.6666C18.4999 11.6666 17.1166 11.8333 15.8833 12.1749C15.0833 11.2166 13.6833 9.99992 11.6666 9.99992C10.4833 11.8999 10.9666 13.9499 11.4166 15.0999C10.5166 16.3583 9.99992 17.9749 9.99992 19.9999C9.99992 24.7166 12.1833 27.2583 16.5499 28.0499C15.9916 28.5916 15.5583 29.2499 15.2916 29.9999H13.3333C12.1333 29.9999 11.6666 29.4666 11.0249 28.5999C10.3833 27.7333 9.69159 27.1499 8.86659 26.9083C8.42492 26.8583 8.12492 27.2166 8.51659 27.5333C9.82492 28.4749 9.91659 30.0166 10.4416 31.0249C10.9166 31.9333 11.8999 32.4999 13.0083 32.4999H14.9999V35.8999C8.23325 33.7833 3.33325 27.4666 3.33325 19.9999C3.33325 10.7916 10.7916 3.33325 19.9999 3.33325C29.2083 3.33325 36.6666 10.7916 36.6666 19.9999Z" fill="white"/>
</svg>
