<svg width="60" height="60" viewBox="0 0 60 60" fill="none" xmlns="http://www.w3.org/2000/svg">
<path d="M50.856 6.66624C50.476 6.24224 49.934 6.00024 49.366 6.00024H10.634C10.066 6.00024 9.52404 6.24224 9.14404 6.66624C8.76404 7.09024 8.58404 7.65624 8.64604 8.22024L13.05 47.8662C13.138 48.6722 13.708 49.3462 14.488 49.5682L29.448 53.8422C29.628 53.8942 29.814 53.9202 29.998 53.9202C30.182 53.9202 30.368 53.8942 30.548 53.8422L45.508 49.5682C46.288 49.3462 46.856 48.6722 46.946 47.8662L51.352 8.22024C51.416 7.65624 51.236 7.09024 50.856 6.66624ZM41.258 20.8602H23.398L23.822 25.9442H40.828L39.552 40.9642L30.006 44.0002L29.912 43.9702L20.472 40.9602L19.956 34.8402H24.58L24.782 37.2182L30.056 38.3802L35.238 37.2162L35.788 30.7902H19.608L18.356 16.0002H41.674L41.258 20.8602Z" fill="#496281"/>
</svg>
