<svg width="40" height="40" viewBox="0 0 40 40" fill="none" xmlns="http://www.w3.org/2000/svg">
<path d="M13.7501 4.16675C8.46591 4.16675 4.16675 8.46591 4.16675 13.7501V26.2501C4.16675 31.5342 8.46591 35.8334 13.7501 35.8334H26.2501C31.5342 35.8334 35.8334 31.5342 35.8334 26.2501V13.7501C35.8334 8.46591 31.5342 4.16675 26.2501 4.16675H13.7501ZM28.3334 10.0001C29.2542 10.0001 30.0001 10.7459 30.0001 11.6667C30.0001 12.5867 29.2542 13.3334 28.3334 13.3334C27.4126 13.3334 26.6667 12.5867 26.6667 11.6667C26.6667 10.7459 27.4126 10.0001 28.3334 10.0001ZM20.0001 11.6667C24.5951 11.6667 28.3334 15.4051 28.3334 20.0001C28.3334 24.5951 24.5951 28.3334 20.0001 28.3334C15.4051 28.3334 11.6667 24.5951 11.6667 20.0001C11.6667 15.4051 15.4051 11.6667 20.0001 11.6667ZM20.0001 14.1667C19.234 14.1667 18.4755 14.3176 17.7678 14.6108C17.06 14.9039 16.417 15.3336 15.8753 15.8753C15.3336 16.417 14.9039 17.06 14.6108 17.7678C14.3176 18.4755 14.1667 19.234 14.1667 20.0001C14.1667 20.7661 14.3176 21.5247 14.6108 22.2324C14.9039 22.9401 15.3336 23.5832 15.8753 24.1249C16.417 24.6665 17.06 25.0962 17.7678 25.3894C18.4755 25.6825 19.234 25.8334 20.0001 25.8334C20.7661 25.8334 21.5247 25.6825 22.2324 25.3894C22.9401 25.0962 23.5832 24.6665 24.1249 24.1249C24.6665 23.5832 25.0962 22.9401 25.3894 22.2324C25.6825 21.5247 25.8334 20.7661 25.8334 20.0001C25.8334 19.234 25.6825 18.4755 25.3894 17.7678C25.0962 17.06 24.6665 16.417 24.1249 15.8753C23.5832 15.3336 22.9401 14.9039 22.2324 14.6108C21.5247 14.3176 20.7661 14.1667 20.0001 14.1667Z" fill="white"/>
</svg>
