<svg width="60" height="60" viewBox="0 0 60 60" fill="none" xmlns="http://www.w3.org/2000/svg">
<path d="M48 8.00024H12C9.79 8.00024 8 9.79024 8 12.0002V48.0002C8 50.2102 9.79 52.0002 12 52.0002H48C50.21 52.0002 52 50.2102 52 48.0002V12.0002C52 9.79024 50.21 8.00024 48 8.00024ZM30 40.7602C30 44.3142 27.82 46.3062 24.2 46.3062C20.624 46.3062 18.346 44.2162 18.346 40.8362H22.22C22.23 42.0902 22.978 42.8822 24.134 42.8822C25.322 42.8822 25.96 42.1342 25.96 40.7262V29.9962H30V40.7602ZM40.962 46.3062C36.944 46.3062 34.416 44.4142 34.348 41.3542H38.2C38.298 42.5102 39.452 43.2462 41.126 43.2462C42.634 43.2462 43.67 42.5202 43.67 41.4742C43.67 40.5942 42.976 40.1202 41.16 39.7582L39.07 39.3402C36.164 38.7902 34.668 37.2062 34.668 34.7082C34.668 31.6042 37.156 29.5682 40.984 29.5682C44.704 29.5682 47.278 31.5822 47.344 34.5202H43.614C43.526 33.3982 42.458 32.6162 41.036 32.6162C39.618 32.6162 38.684 33.2882 38.684 34.3442C38.684 35.2142 39.388 35.7202 41.06 36.0502L43.104 36.4462C46.242 37.0522 47.65 38.4702 47.65 40.9902C47.652 44.3042 45.122 46.3062 40.962 46.3062Z" fill="#496281"/>
</svg>
