<svg width="40" height="40" viewBox="0 0 40 40" fill="none" xmlns="http://www.w3.org/2000/svg">
<path d="M30.4167 5H9.58333C7.05667 5 5 7.05667 5 9.58333V30.4167C5 32.9433 7.05667 35 9.58333 35H30.4167C32.9433 35 35 32.9433 35 30.4167V9.58333C35 7.05667 32.9433 5 30.4167 5ZM15 28.3333C15 28.7942 14.6275 29.1667 14.1667 29.1667H11.6667C11.2058 29.1667 10.8333 28.7942 10.8333 28.3333V17.5C10.8333 17.0392 11.2058 16.6667 11.6667 16.6667H14.1667C14.6275 16.6667 15 17.0392 15 17.5V28.3333ZM12.9167 15C11.7658 15 10.8333 14.0675 10.8333 12.9167C10.8333 11.7658 11.7658 10.8333 12.9167 10.8333C14.0675 10.8333 15 11.7658 15 12.9167C15 14.0675 14.0675 15 12.9167 15ZM29.1667 28.3333C29.1667 28.7942 28.7942 29.1667 28.3333 29.1667H25.8333C25.3725 29.1667 25 28.7942 25 28.3333V22.0833C25 20.9342 24.0658 20 22.9167 20C21.7675 20 20.8333 20.9342 20.8333 22.0833V28.3333C20.8333 28.7942 20.4608 29.1667 20 29.1667H17.5C17.0392 29.1667 16.6667 28.7942 16.6667 28.3333V17.5C16.6667 17.0392 17.0392 16.6667 17.5 16.6667H20C20.4608 16.6667 20.8333 17.0392 20.8333 17.5V17.9508C21.7192 17.155 22.885 16.6667 24.1667 16.6667C26.9242 16.6667 29.1667 18.9092 29.1667 21.6667V28.3333Z" fill="white"/>
</svg>
