<svg width="24" height="24" viewBox="0 0 24 24" fill="none" xmlns="http://www.w3.org/2000/svg">
<path d="M9.68887 16.98C9.87927 16.6552 9.87527 16.256 9.68327 15.9328L8.70807 14.296C8.48967 13.9296 8.51527 13.472 8.77767 13.136C9.23127 12.5552 9.99447 11.62 10.8081 10.8064C11.6217 9.99276 12.5569 9.22956 13.1377 8.77596C13.4737 8.51356 13.9313 8.48796 14.2977 8.70636L15.9345 9.68156C16.2577 9.87436 16.6601 9.87596 16.9849 9.68556L21.0873 7.28396C21.4841 7.05116 21.6793 6.58876 21.5697 6.14156C21.4641 5.70716 21.2065 5.14316 20.6145 4.55196C18.7633 2.70076 15.6409 1.71756 8.67927 8.67916C1.71767 15.6408 2.70007 18.7624 4.55207 20.6144C5.14487 21.2072 5.70967 21.464 6.14487 21.5704C6.59127 21.6784 7.05047 21.4864 7.28247 21.0904C7.86087 20.1016 9.10967 17.9688 9.68887 16.98Z" fill="white"/>
</svg>
