<svg width="60" height="60" viewBox="0 0 60 60" fill="none" xmlns="http://www.w3.org/2000/svg">
<path d="M12 8.00024C9.79 8.00024 8 9.79024 8 12.0002V48.0002C8 50.2102 9.79 52.0002 12 52.0002H48C50.21 52.0002 52 50.2102 52 48.0002V12.0002C52 9.79024 50.21 8.00024 48 8.00024H12ZM12.4219 24.0002H17.6758C20.2538 24.0002 22 25.6801 22 28.2581C22 30.8101 20.1622 32.4807 17.4922 32.4807H15.4727V36.0002H12.4219V24.0002ZM24.5586 24.0002H27.6133V28.7073H32.3945V24.0002H35.4375V36.0002H32.3945V31.1604H27.6133V36.0002H24.5586V24.0002ZM38.4219 24.0002H43.6758C46.2538 24.0002 48 25.6801 48 28.2581C48 30.8101 46.1622 32.4807 43.4922 32.4807H41.4727V36.0002H38.4219V24.0002ZM15.4727 26.3479V30.1799H16.8516C18.1496 30.1799 18.9141 29.5158 18.9141 28.2698C18.9141 27.0038 18.1591 26.3479 16.8711 26.3479H15.4727ZM41.4727 26.3479V30.1799H42.8516C44.1496 30.1799 44.9141 29.5158 44.9141 28.2698C44.9141 27.0038 44.1591 26.3479 42.8711 26.3479H41.4727Z" fill="#496281"/>
</svg>
