<svg width="60" height="60" viewBox="0 0 60 60" fill="none" xmlns="http://www.w3.org/2000/svg">
<path d="M26 6.00024C21.582 6.00024 18 9.58224 18 14.0002V16.0002H28C29.104 16.0002 30 16.8962 30 18.0002C30 19.1042 29.104 20.0002 28 20.0002H18H16H14C9.582 20.0002 6 23.5822 6 28.0002V36.0002C6 40.4182 9.582 44.0002 14 44.0002H16V34.0002C16 30.6922 18.692 28.0002 22 28.0002H38C39.104 28.0002 40 27.1042 40 26.0002V14.0002C40 9.58224 36.418 6.00024 32 6.00024H26ZM24 10.0002C25.104 10.0002 26 10.8962 26 12.0002C26 13.1042 25.104 14.0002 24 14.0002C22.896 14.0002 22 13.1042 22 12.0002C22 10.8962 22.896 10.0002 24 10.0002ZM44 16.0002V26.0002C44 29.3082 41.308 32.0002 38 32.0002H22C20.896 32.0002 20 32.8962 20 34.0002V46.0002C20 50.4182 23.582 54.0002 28 54.0002H34C38.418 54.0002 42 50.4182 42 46.0002V44.0002H32C30.896 44.0002 30 43.1042 30 42.0002C30 40.8962 30.896 40.0002 32 40.0002H42H44H46C50.418 40.0002 54 36.4182 54 32.0002V24.0002C54 19.5822 50.418 16.0002 46 16.0002H44ZM36 46.0002C37.104 46.0002 38 46.8962 38 48.0002C38 49.1042 37.104 50.0002 36 50.0002C34.896 50.0002 34 49.1042 34 48.0002C34 46.8962 34.896 46.0002 36 46.0002Z" fill="#496281"/>
</svg>
