<svg width="60" height="60" viewBox="0 0 60 60" fill="none" xmlns="http://www.w3.org/2000/svg">
<path d="M12 8.00024C9.79 8.00024 8 9.79024 8 12.0002V48.0002C8 50.2102 9.79 52.0002 12 52.0002H48C50.21 52.0002 52 50.2102 52 48.0002V12.0002C52 9.79024 50.21 8.00024 48 8.00024H12ZM30.2422 21.7776C33.2102 21.7776 34.3672 25.0321 34.3672 28.8401C34.3672 32.5081 33.5251 34.6533 32.1211 35.3713V35.4612C33.0391 35.8692 34.015 36.1823 34.875 36.4963L34.0781 38.2229C32.9281 37.7529 31.5373 37.0516 30.6133 36.5276C30.3313 36.3756 30.1275 36.2659 30.0195 36.2659C27.4515 36.2659 25.7852 33.7483 25.7852 28.9963C25.7852 24.7823 27.3882 21.7776 30.2422 21.7776ZM20.3789 21.8167C21.2909 21.8167 22.1142 22.0883 22.4922 22.3323L22.0781 24.2581C21.6941 24.0061 21.0921 23.7737 20.3281 23.7737C19.0541 23.7737 18.4531 24.6405 18.4531 25.4885C18.4531 26.5865 19.015 27.0859 20.457 28.0159C22.255 29.1799 22.9727 30.5506 22.9727 32.0706C22.9707 34.6046 21.1472 36.2229 18.6172 36.2229C17.5532 36.2229 16.4928 35.9251 16.0508 35.6331L16.4297 33.7034C16.9577 34.0214 17.8751 34.2698 18.6211 34.2698C20.0011 34.2698 20.7578 33.4609 20.7578 32.3049C20.7578 31.1609 20.0603 30.517 18.9023 29.719C17.3383 28.715 16.2344 27.3076 16.2344 25.7776C16.2344 23.5656 17.7369 21.8167 20.3789 21.8167ZM38 21.9456H40.2383V34.1995H44.0234V36.0979H38V21.9456ZM30.1172 23.7307C28.6692 23.7307 28.1013 26.2909 28.1133 28.9729C28.0893 31.8089 28.6112 34.3127 30.1172 34.3127C31.5572 34.3127 32.0391 31.8117 32.0391 28.9377C32.0391 26.2717 31.5972 23.7307 30.1172 23.7307Z" fill="#496281"/>
</svg>
