<svg width="40" height="40" viewBox="0 0 40 40" fill="none" xmlns="http://www.w3.org/2000/svg">
<path d="M37.2658 8.5875C37.02 8.33333 36.6417 8.26083 36.3192 8.40917L36.1825 8.47167C36.0667 8.525 35.9508 8.57833 35.8342 8.63083C36.1733 8.09 36.4425 7.51167 36.6283 6.91333C36.7317 6.58333 36.6192 6.2225 36.3458 6.00917C36.0725 5.79583 35.6958 5.77333 35.4 5.95417C34.4492 6.53167 33.5358 6.9475 32.5917 7.2375C31.1667 5.855 29.2258 5 27.0833 5C22.7108 5 19.1667 8.54417 19.1667 12.9167C19.1667 12.9208 19.1667 13.0858 19.1667 13.3333L18.3342 13.2667C10.2316 12.3083 7.92498 6.85833 7.82915 6.62333C7.67415 6.23167 7.33248 5.94583 6.91998 5.86C6.50831 5.7725 6.08081 5.90167 5.78248 6.19917C5.61748 6.365 4.16665 7.9 4.16665 10.8333C4.16665 12.9233 5.09831 14.6183 6.30415 15.9367C5.74248 15.5942 5.41498 15.3167 5.40665 15.3092C5.02248 14.9742 4.47248 14.9042 4.01581 15.1358C3.56081 15.3683 3.29248 15.8542 3.33831 16.3633C3.35415 16.5392 3.70915 19.8742 7.56165 22.3925L6.85915 22.52C6.43331 22.5975 6.07748 22.89 5.91915 23.2933C5.76165 23.6975 5.82331 24.1533 6.08331 24.5C6.17081 24.6175 7.79831 26.7333 11.3325 27.95C9.44498 28.5792 6.85165 29.1667 3.74998 29.1667C3.25998 29.1667 2.81415 29.4533 2.61165 29.9C2.40831 30.3467 2.48581 30.8708 2.80915 31.2392C2.94331 31.3933 6.19581 35 14.5833 35C28.5108 35 35 22.0708 35 13.3333V12.9167C35 12.7933 34.9867 12.6725 34.9817 12.5508C36.725 10.8658 37.3808 9.60167 37.4125 9.53917C37.57 9.2225 37.5117 8.84083 37.2658 8.5875Z" fill="white"/>
</svg>
