<svg width="60" height="60" viewBox="0 0 60 60" fill="none" xmlns="http://www.w3.org/2000/svg">
<path d="M45 6.25C42.6625 6.25 40.4647 7.16098 38.8134 8.81348L30.1391 17.4878L28.9013 16.25L26.9506 18.2007C26.5844 18.5669 26.105 18.75 25.625 18.75C25.145 18.75 24.6655 18.5669 24.2993 18.2007C23.5668 17.4682 23.5668 16.2818 24.2993 15.5493L26.25 13.5986L23.9013 11.25L21.9506 13.2007C21.5856 13.5669 21.105 13.75 20.625 13.75C20.145 13.75 19.6655 13.5669 19.2993 13.2007C18.5668 12.4682 18.5668 11.2818 19.2993 10.5493L21.25 8.59863L20.1831 7.53174C18.5306 5.87924 15.6465 5.88049 13.9965 7.53174L7.5317 13.9941C6.7042 14.8204 6.24996 15.9198 6.24996 17.0898C6.24996 18.2586 6.70545 19.3556 7.5317 20.1831L17.4878 30.1392L11.1425 36.4819C10.62 37.0069 10.2355 37.6603 10.0317 38.3716L6.32076 51.3599C6.13451 52.0149 6.31678 52.7194 6.79928 53.2007C7.15678 53.5569 7.63371 53.75 8.12496 53.75C8.29746 53.75 8.4701 53.7255 8.6401 53.6768L21.6284 49.9683C22.3446 49.7633 22.998 49.375 23.518 48.8525L29.8608 42.5122L40.0317 52.6831C40.8855 53.5369 42.0037 53.9624 43.125 53.9624C44.2462 53.9624 45.3645 53.5356 46.2182 52.6831L52.6831 46.2183C54.3881 44.5133 54.3881 41.7367 52.6831 40.0317L51.4013 38.75L49.4506 40.7007C49.0856 41.0669 48.605 41.25 48.125 41.25C47.645 41.25 47.1655 41.0669 46.7993 40.7007C46.0668 39.9682 46.0668 38.7818 46.7993 38.0493L48.75 36.0986L46.4013 33.75L44.4506 35.7007C44.0856 36.0669 43.605 36.25 43.125 36.25C42.645 36.25 42.1655 36.0669 41.7993 35.7007C41.0668 34.9682 41.0668 33.7818 41.7993 33.0493L43.75 31.0986L42.5122 29.8608L51.1865 21.1865C52.839 19.5353 53.75 17.3375 53.75 15C53.75 12.6625 52.8377 10.4647 51.1865 8.81348C49.534 7.16098 47.3375 6.25 45 6.25ZM45 10C46.335 10 47.5914 10.5198 48.5351 11.4648C49.4801 12.4098 50 13.665 50 15C50 16.335 49.4801 17.5902 48.5351 18.5352L46.1108 20.9595L39.0405 13.8892L41.4673 11.4648C42.4098 10.5198 43.665 10 45 10ZM36.3891 16.5405L43.4594 23.6108L20.8642 46.2061C20.7892 46.2811 20.6969 46.3336 20.5957 46.3623L10.8545 49.1455L13.6377 39.4043C13.6664 39.2993 13.7214 39.2071 13.7964 39.1309L36.3891 16.5405Z" fill="white"/>
</svg>
