<svg width="32" height="32" viewBox="0 0 32 32" fill="none" xmlns="http://www.w3.org/2000/svg">
<path d="M29.3334 16.0001C29.3334 23.3634 23.3634 29.3334 16.0001 29.3334C8.63675 29.3334 2.66675 23.3634 2.66675 16.0001C2.66675 8.63675 8.63675 2.66675 16.0001 2.66675C23.3634 2.66675 29.3334 8.63675 29.3334 16.0001Z" fill="url(#paint0_linear_490_26)"/>
<path d="M16.0094 22.6666C15.5214 22.6666 15.1188 22.5186 14.8014 22.2226C14.4841 21.9266 14.3254 21.5686 14.3254 21.1473C14.3254 20.7079 14.4854 20.3479 14.8061 20.0673C15.1261 19.7866 15.5274 19.6466 16.0094 19.6466C16.4974 19.6466 16.8974 19.7886 17.2081 20.0719C17.5194 20.3559 17.6748 20.7139 17.6748 21.1473C17.6748 21.5866 17.5208 21.9493 17.2128 22.2359C16.9048 22.5226 16.5034 22.6666 16.0094 22.6666ZM17.4908 9.81392L17.1701 17.9306C17.1601 18.1786 16.9561 18.3746 16.7081 18.3746H15.2554C15.0068 18.3746 14.8028 18.1779 14.7934 17.9293L14.4901 9.81325C14.4801 9.55125 14.6901 9.33325 14.9521 9.33325H17.0294C17.2914 9.33325 17.5014 9.55125 17.4908 9.81392Z" fill="url(#paint1_radial_490_26)"/>
<defs>
<linearGradient id="paint0_linear_490_26" x1="6.57208" y1="6.57208" x2="25.4281" y2="25.4281" gradientUnits="userSpaceOnUse">
<stop stop-color="#FFDA1C"/>
<stop offset="1" stop-color="#FEB705"/>
</linearGradient>
<radialGradient id="paint1_radial_490_26" cx="0" cy="0" r="1" gradientUnits="userSpaceOnUse" gradientTransform="translate(12.1261 9.18725) scale(14.9087 14.9087)">
<stop stop-color="#4B4B4B"/>
<stop offset="0.531" stop-color="#393939"/>
<stop offset="1" stop-color="#252525"/>
</radialGradient>
</defs>
</svg>
