<svg width="32" height="33" viewBox="0 0 32 33" fill="none" xmlns="http://www.w3.org/2000/svg">
<path d="M8.64258 4.99219C7.18358 4.99219 6 6.17381 6 7.63281C6 9.09181 7.18263 10.3008 8.64062 10.3008C10.0986 10.3008 11.2832 9.09181 11.2832 7.63281C11.2832 6.17481 10.1016 4.99219 8.64258 4.99219ZM21.5352 11.9922C19.3162 11.9922 18.0465 13.1526 17.4375 14.3066H17.373V12.3027H13V26.9922H17.5566V19.7207C17.5566 17.8047 17.7013 15.9531 20.0723 15.9531C22.4093 15.9531 22.4434 18.1378 22.4434 19.8418V26.9922H26.9941H27V18.9238C27 14.9758 26.1512 11.9922 21.5352 11.9922ZM6.36328 12.3027V26.9922H10.9238V12.3027H6.36328Z" fill="white"/>
</svg>
