<svg width="23" height="24" viewBox="0 0 23 24" fill="none" xmlns="http://www.w3.org/2000/svg">
<path d="M11.5 23.5C17.8512 23.5 23 18.3512 23 12C23 5.64872 17.8512 0.5 11.5 0.5C5.14872 0.5 0 5.64872 0 12C0 18.3512 5.14872 23.5 11.5 23.5Z" fill="black" fill-opacity="0.1"/>
<path d="M15.6821 10.3302V9.54313C15.6821 8.54043 15.6821 5.5 11.4999 5.5C7.31784 5.5 7.31785 8.54043 7.31785 9.54313V10.3302C5.95726 10.6213 5.5 11.473 5.5 13.3167V14.3949C5.5 16.7668 6.25837 17.5 8.71189 17.5H14.288C16.7415 17.5 17.5 16.7668 17.5 14.3949V13.3167C17.5 11.473 17.0426 10.6213 15.6821 10.3302ZM11.4999 15.0418C10.8196 15.0418 10.2733 14.5135 10.2733 13.8558C10.2733 13.1981 10.8196 12.6698 11.4999 12.6698C12.1802 12.6698 12.7267 13.1981 12.7267 13.8558C12.7267 14.5135 12.1802 15.0418 11.4999 15.0418ZM14.0092 10.2116H8.9907V9.54313C8.9907 7.969 9.39213 7.11725 11.4999 7.11725C13.6077 7.11725 14.0092 7.969 14.0092 9.54313V10.2116Z" fill="black"/>
</svg>
