<svg width="48" height="48" viewBox="0 0 48 48" fill="none" xmlns="http://www.w3.org/2000/svg">
<path d="M26.1535 24.0008L31.5352 18.6175C31.6806 18.477 31.7966 18.3091 31.8764 18.1233C31.9562 17.9376 31.9982 17.7378 31.9999 17.5357C32.0017 17.3335 31.9632 17.133 31.8866 16.9459C31.8101 16.7588 31.697 16.5889 31.5541 16.4459C31.4112 16.303 31.2412 16.1899 31.0541 16.1134C30.867 16.0368 30.6665 15.9983 30.4644 16.0001C30.2622 16.0018 30.0624 16.0438 29.8767 16.1236C29.691 16.2034 29.523 16.3194 29.3825 16.4648L23.9992 21.8465L18.6175 16.4648C18.477 16.3194 18.3091 16.2034 18.1233 16.1236C17.9376 16.0438 17.7378 16.0018 17.5357 16.0001C17.3335 15.9983 17.133 16.0368 16.9459 16.1134C16.7588 16.1899 16.5889 16.303 16.4459 16.4459C16.303 16.5889 16.1899 16.7588 16.1134 16.9459C16.0368 17.133 15.9983 17.3335 16.0001 17.5357C16.0018 17.7378 16.0438 17.9376 16.1236 18.1233C16.2034 18.3091 16.3194 18.477 16.4648 18.6175L21.8465 23.9992L16.4648 29.3825C16.3194 29.523 16.2034 29.691 16.1236 29.8767C16.0438 30.0624 16.0018 30.2622 16.0001 30.4644C15.9983 30.6665 16.0368 30.867 16.1134 31.0541C16.1899 31.2412 16.303 31.4112 16.4459 31.5541C16.5889 31.697 16.7588 31.8101 16.9459 31.8866C17.133 31.9632 17.3335 32.0017 17.5357 31.9999C17.7378 31.9982 17.9376 31.9562 18.1233 31.8764C18.3091 31.7966 18.477 31.6806 18.6175 31.5352L23.9992 26.1535L29.3825 31.5352C29.523 31.6806 29.691 31.7966 29.8767 31.8764C30.0624 31.9562 30.2622 31.9982 30.4644 31.9999C30.6665 32.0017 30.867 31.9632 31.0541 31.8866C31.2412 31.8101 31.4112 31.697 31.5541 31.5541C31.697 31.4112 31.8101 31.2412 31.8866 31.0541C31.9632 30.867 32.0017 30.6665 31.9999 30.4644C31.9982 30.2622 31.9562 30.0624 31.8764 29.8767C31.7966 29.691 31.6806 29.523 31.5352 29.3825L26.1535 24.0008Z" fill="black"/>
</svg>
