<svg width="24" height="25" viewBox="0 0 24 25" fill="none" xmlns="http://www.w3.org/2000/svg">
<path d="M20.6191 9.44219C19.5691 4.82219 15.5391 2.74219 11.9991 2.74219C11.9991 2.74219 11.9991 2.74219 11.9891 2.74219C8.45912 2.74219 4.41912 4.81219 3.36912 9.43219C2.19912 14.5922 5.35912 18.9622 8.21912 21.7122C9.27912 22.7322 10.6391 23.2422 11.9991 23.2422C13.3591 23.2422 14.7191 22.7322 15.7691 21.7122C18.6291 18.9622 21.7891 14.6022 20.6191 9.44219Z" fill="white"/>
<path d="M11.9996 14.4524C13.7393 14.4524 15.1496 13.0421 15.1496 11.3024C15.1496 9.56264 13.7393 8.15234 11.9996 8.15234C10.2599 8.15234 8.84961 9.56264 8.84961 11.3024C8.84961 13.0421 10.2599 14.4524 11.9996 14.4524Z" fill="black"/>
</svg>
