<svg width="24" height="25" viewBox="0 0 24 25" fill="none" xmlns="http://www.w3.org/2000/svg">
<path d="M11.79 15.2022L8.52 18.4722C8.16 18.1522 7.81 17.8222 7.47 17.4822C6.44 16.4422 5.51 15.3522 4.68 14.2122C3.86 13.0722 3.2 11.9322 2.72 10.8022C2.24 9.66219 2 8.57219 2 7.53219C2 6.85219 2.12 6.20219 2.36 5.60219C2.6 4.99219 2.98 4.43219 3.51 3.93219C4.15 3.30219 4.85 2.99219 5.59 2.99219C5.87 2.99219 6.15 3.05219 6.4 3.17219C6.66 3.29219 6.89 3.47219 7.07 3.73219L9.39 7.00219C9.57 7.25219 9.7 7.48219 9.79 7.70219C9.88 7.91219 9.93 8.12219 9.93 8.31219C9.93 8.55219 9.86 8.79219 9.72 9.02219C9.59 9.25219 9.4 9.49219 9.16 9.73219L8.4 10.5222C8.29 10.6322 8.24 10.7622 8.24 10.9222C8.24 11.0022 8.25 11.0722 8.27 11.1522C8.3 11.2322 8.33 11.2922 8.35 11.3522C8.53 11.6822 8.84 12.1122 9.28 12.6322C9.73 13.1522 10.21 13.6822 10.73 14.2122C11.09 14.5622 11.44 14.9022 11.79 15.2022Z" fill="white"/>
<path d="M21.9696 19.3222C21.9696 19.6022 21.9196 19.8922 21.8196 20.1722C21.7896 20.2522 21.7596 20.3322 21.7196 20.4122C21.5496 20.7722 21.3296 21.1122 21.0396 21.4322C20.5496 21.9722 20.0096 22.3622 19.3996 22.6122C19.3896 22.6122 19.3796 22.6222 19.3696 22.6222C18.7796 22.8622 18.1396 22.9922 17.4496 22.9922C16.4296 22.9922 15.3396 22.7522 14.1896 22.2622C13.0396 21.7722 11.8896 21.1122 10.7496 20.2822C10.3596 19.9922 9.96961 19.7022 9.59961 19.3922L12.8696 16.1222C13.1496 16.3322 13.3996 16.4922 13.6096 16.6022C13.6596 16.6222 13.7196 16.6522 13.7896 16.6822C13.8696 16.7122 13.9496 16.7222 14.0396 16.7222C14.2096 16.7222 14.3396 16.6622 14.4496 16.5522L15.2096 15.8022C15.4596 15.5522 15.6996 15.3622 15.9296 15.2422C16.1596 15.1022 16.3896 15.0322 16.6396 15.0322C16.8296 15.0322 17.0296 15.0722 17.2496 15.1622C17.4696 15.2522 17.6996 15.3822 17.9496 15.5522L21.2596 17.9022C21.5196 18.0822 21.6996 18.2922 21.8096 18.5422C21.9096 18.7922 21.9696 19.0422 21.9696 19.3222Z" fill="white"/>
</svg>
