<svg width="33" height="33" viewBox="0 0 33 33" fill="none" xmlns="http://www.w3.org/2000/svg">
<path d="M1.33325 7.74219V26.2422H10.2708C11.0989 26.2422 16.802 26.0742 16.802 20.8672C16.802 17.6133 14.5637 16.5078 13.427 16.1797C14.2629 15.7852 15.927 14.8477 15.927 12.3359C15.927 10.9375 15.7278 7.74219 10.0208 7.74219H1.33325ZM21.7083 9.46094V11.1484H28.6145V9.46094H21.7083ZM5.39575 10.8984H9.20825C9.56763 10.8984 11.9895 10.707 11.9895 13.0234C11.9895 15.0039 10.2395 15.2109 9.52075 15.2109H5.39575V10.8984ZM25.3333 12.6797C20.1106 12.6797 19.0208 17.2148 19.0208 19.1797C19.0208 25.0117 23.802 25.6797 25.3333 25.6797C29.4622 25.6797 30.634 23.0078 31.1145 21.5234H28.1145C27.9973 21.9063 27.1223 23.1484 25.4583 23.1484C22.6692 23.1484 22.427 20.9688 22.427 19.9922H31.302C31.4817 16.6172 30.0051 12.6797 25.3333 12.6797ZM25.2395 15.2109C26.0715 15.2109 26.7434 15.4531 27.1458 15.8984C27.5481 16.3477 27.845 17.0039 27.927 17.8672H22.427C22.4426 17.6289 22.4973 17.3555 22.5833 17.0547C22.6692 16.7461 22.802 16.4531 23.0208 16.1797C23.2395 15.9102 23.5442 15.6758 23.8958 15.4922C24.2551 15.3047 24.7004 15.2109 25.2395 15.2109ZM5.39575 17.9922H9.802C10.677 17.9922 12.7395 18.1289 12.7395 20.6484C12.7395 23.0898 10.1418 23.0859 9.7395 23.0859H5.39575V17.9922Z" fill="white"/>
</svg>
