<svg width="32" height="33" viewBox="0 0 32 33" fill="none" xmlns="http://www.w3.org/2000/svg">
<path d="M16 4.99219C9.38281 4.99219 4 10.375 4 16.9922C4 23.6094 9.38281 28.9922 16 28.9922C22.6172 28.9922 28 23.6094 28 16.9922C28 10.375 22.6172 4.99219 16 4.99219ZM16 6.99219C18.5352 6.99219 20.832 7.94531 22.5938 9.49219C22.4062 9.75391 22.1523 10.0703 21.75 10.4609C20.8945 11.2891 19.5273 12.2852 17.4375 13.0547C16.0234 10.4414 14.6367 8.47656 13.7188 7.24219C14.4492 7.07422 15.2148 6.99219 16 6.99219ZM11.75 7.92969C12.5703 9.00391 14.0312 10.9961 15.5 13.6484C11.4336 14.7266 7.70312 14.8633 6.21875 14.8672C6.88281 11.7773 8.96094 9.23438 11.75 7.92969ZM23.9688 10.9609C25.1875 12.5742 25.9453 14.5703 26 16.7422C25.1094 16.543 23.7969 16.3477 22.0938 16.3359C21.207 16.332 20.2031 16.3945 19.125 16.5234C18.875 15.9531 18.6055 15.4023 18.3438 14.8672C20.5859 14.0078 22.1133 12.875 23.125 11.8984C23.4688 11.5625 23.7383 11.2539 23.9688 10.9609ZM16.4062 15.4609C16.6367 15.9258 16.8711 16.4023 17.0938 16.8984C12.8203 18.082 9.75 21.707 8.4375 23.5234C6.92578 21.7734 6 19.4922 6 16.9922C6 16.9492 6 16.9102 6 16.8672C7.35156 16.8828 11.6484 16.7891 16.4062 15.4609ZM22.0938 18.3047C23.8789 18.3047 25.1133 18.5547 25.8438 18.7422C25.3789 21.4062 23.875 23.6914 21.75 25.1797C21.3516 22.7891 20.6953 20.5156 19.9062 18.4297C20.6953 18.3516 21.4414 18.3047 22.0938 18.3047ZM17.875 18.7734C18.7734 21.0547 19.5273 23.5586 19.9062 26.2109C18.7109 26.7148 17.3828 26.9922 16 26.9922C13.707 26.9922 11.5898 26.2227 9.90625 24.9297C10.9336 23.5234 13.9531 19.7812 17.875 18.7734Z" fill="white"/>
</svg>
