<svg width="33" height="33" viewBox="0 0 33 33" fill="none" xmlns="http://www.w3.org/2000/svg">
<path fill-rule="evenodd" clip-rule="evenodd" d="M16.6667 4.99219C10.0378 4.99219 4.66675 10.3633 4.66675 16.9922C4.66675 22.293 8.10425 26.793 12.8738 28.3789C13.4753 28.4883 13.6941 28.1211 13.6941 27.8008C13.6941 27.5156 13.6824 26.7617 13.6785 25.7617C10.3386 26.4844 9.6355 24.1523 9.6355 24.1523C9.08862 22.7656 8.30347 22.3945 8.30347 22.3945C7.21362 21.6523 8.3855 21.668 8.3855 21.668C9.58862 21.7539 10.2214 22.9023 10.2214 22.9023C11.2917 24.7383 13.03 24.207 13.7136 23.9023C13.823 23.125 14.1355 22.5977 14.4753 22.2969C11.8113 21.9961 9.0105 20.9648 9.0105 16.3672C9.0105 15.0547 9.47925 13.9844 10.2449 13.1445C10.1238 12.8438 9.70972 11.6211 10.3621 9.96875C10.3621 9.96875 11.3699 9.64844 13.6628 11.1992C14.6199 10.9336 15.6472 10.8008 16.6667 10.7969C17.6863 10.8008 18.7136 10.9336 19.6707 11.1992C21.9636 9.64844 22.9675 9.96875 22.9675 9.96875C23.6238 11.6211 23.2136 12.8438 23.0886 13.1445C23.8582 13.9844 24.3191 15.0547 24.3191 16.3672C24.3191 20.9766 21.5144 21.9883 18.8425 22.2891C19.2722 22.6562 19.655 23.3906 19.655 24.5078C19.655 26.1133 19.6433 27.4062 19.6433 27.8008C19.6433 28.1211 19.8582 28.4961 20.4675 28.3789C25.2332 26.7891 28.6667 22.293 28.6667 16.9922C28.6667 10.3633 23.2957 4.99219 16.6667 4.99219Z" fill="white"/>
</svg>
