<svg width="32" height="33" viewBox="0 0 32 33" fill="none" xmlns="http://www.w3.org/2000/svg">
<path d="M6 5.99219C3.80267 5.99219 2 7.79485 2 9.99219V24.9922C2 26.6372 3.35503 27.9922 5 27.9922H10V18.0234L16 22.5449L22 18.0234V27.9922H27C28.645 27.9922 30 26.6372 30 24.9922V9.99219C30 7.79485 28.1973 5.99219 26 5.99219C25.1031 5.99219 24.2631 6.28985 23.5918 6.79102L23.5898 6.79297L16 12.5098L8.41211 6.79297V6.79492C7.73821 6.28614 6.89531 5.99219 6 5.99219ZM6 7.99219C6.46069 7.99219 6.87693 8.14141 7.20703 8.39062L8 8.98828V14.0117L4 10.998V9.99219C4 8.87552 4.88333 7.99219 6 7.99219ZM26 7.99219C27.1167 7.99219 28 8.87552 28 9.99219V10.9961L24 14.0098V8.98633L24.7891 8.39258C25.1197 8.14574 25.5509 7.99219 26 7.99219ZM10 10.4941L16 15.0137L22 10.4941V15.5176L16 20.0391L10 15.5176V10.4941ZM4 13.5L8 16.5156V25.9922H5C4.43497 25.9922 4 25.5572 4 24.9922V13.5ZM28 13.5V24.9922C28 25.5572 27.565 25.9922 27 25.9922H24V16.5156L28 13.5Z" fill="white"/>
</svg>
