<svg width="33" height="33" viewBox="0 0 33 33" fill="none" xmlns="http://www.w3.org/2000/svg">
<path d="M28.3335 9.55078C27.4507 9.94141 26.5015 10.207 25.5054 10.3242C26.521 9.71484 27.3022 8.75 27.6694 7.60156C26.7202 8.16406 25.6655 8.57422 24.5444 8.79688C23.646 7.83984 22.3647 7.23828 20.9507 7.23828C18.2319 7.23828 16.0249 9.44531 16.0249 12.1641C16.0249 12.5508 16.0679 12.9258 16.1538 13.2852C12.0601 13.082 8.43115 11.1211 6.00537 8.14062C5.57959 8.86719 5.3374 9.71484 5.3374 10.6172C5.3374 12.3242 6.20459 13.832 7.52881 14.7148C6.72022 14.6875 5.9624 14.4688 5.29834 14.0977C5.29834 14.1211 5.29834 14.1406 5.29834 14.1602C5.29834 16.5469 6.99365 18.5391 9.24756 18.9883C8.8335 19.1016 8.3999 19.1641 7.95068 19.1641C7.63428 19.1641 7.32178 19.1328 7.0249 19.0742C7.6499 21.0313 9.47022 22.4531 11.6226 22.4961C9.93897 23.8164 7.81396 24.6016 5.50928 24.6016C5.11084 24.6016 4.72022 24.5781 4.3335 24.5312C6.51318 25.9297 9.09912 26.7461 11.8804 26.7461C20.939 26.7461 25.8921 19.2422 25.8921 12.7344C25.8921 12.5234 25.8843 12.3086 25.8765 12.0977C26.8374 11.4023 27.6733 10.5352 28.3335 9.55078Z" fill="white"/>
</svg>
