<svg width="92" height="93" viewBox="0 0 92 93" fill="none" xmlns="http://www.w3.org/2000/svg">
<mask id="path-1-outside-1_300_5160" maskUnits="userSpaceOnUse" x="15" y="0" width="66" height="93" fill="black">
<rect fill="white" x="15" width="66" height="93"/>
<path fill-rule="evenodd" clip-rule="evenodd" d="M49.75 32.8333L47.8333 32.8333V46.25V59.6667V73.0833C47.8333 80.4932 41.8265 86.5 34.4167 86.5C27.0068 86.5 21 80.4932 21 73.0833C21 65.6735 27.0068 59.6667 34.4167 59.6667C27.0068 59.6667 21 53.6598 21 46.25C21 38.8419 27.0041 32.8361 34.4115 32.8333C27.0041 32.8306 21 26.8248 21 19.4167C21 12.0068 27.0068 6 34.4167 6H47.8333H49.75H61.25C68.6598 6 74.6667 12.0068 74.6667 19.4167C74.6667 26.8248 68.6626 32.8306 61.2551 32.8333C68.6626 32.8361 74.6667 38.8419 74.6667 46.25C74.6667 53.6598 68.6598 59.6667 61.25 59.6667C53.8402 59.6667 47.8333 53.6598 47.8333 46.25C47.8333 38.8426 53.8363 32.8372 61.2428 32.8333H49.75Z"/>
</mask>
<path fill-rule="evenodd" clip-rule="evenodd" d="M49.75 32.8333L47.8333 32.8333V46.25V59.6667V73.0833C47.8333 80.4932 41.8265 86.5 34.4167 86.5C27.0068 86.5 21 80.4932 21 73.0833C21 65.6735 27.0068 59.6667 34.4167 59.6667C27.0068 59.6667 21 53.6598 21 46.25C21 38.8419 27.0041 32.8361 34.4115 32.8333C27.0041 32.8306 21 26.8248 21 19.4167C21 12.0068 27.0068 6 34.4167 6H47.8333H49.75H61.25C68.6598 6 74.6667 12.0068 74.6667 19.4167C74.6667 26.8248 68.6626 32.8306 61.2551 32.8333C68.6626 32.8361 74.6667 38.8419 74.6667 46.25C74.6667 53.6598 68.6598 59.6667 61.25 59.6667C53.8402 59.6667 47.8333 53.6598 47.8333 46.25C47.8333 38.8426 53.8363 32.8372 61.2428 32.8333H49.75Z" fill="white"/>
<path d="M47.8333 32.8333L47.8333 26.8333L41.8333 26.8333V32.8333H47.8333ZM49.75 32.8333L49.75 38.8333H49.75V32.8333ZM34.4115 32.8333L34.4138 38.8333L34.4138 26.8333L34.4115 32.8333ZM61.2551 32.8333L61.2529 26.8333L61.2529 38.8333L61.2551 32.8333ZM61.2428 32.8333L61.2459 38.8333L61.2428 26.8333V32.8333ZM47.8333 38.8333L49.75 38.8333L49.75 26.8333L47.8333 26.8333L47.8333 38.8333ZM53.8333 46.25V32.8333H41.8333V46.25H53.8333ZM53.8333 59.6667V46.25H41.8333V59.6667H53.8333ZM53.8333 73.0833V59.6667H41.8333V73.0833H53.8333ZM34.4167 92.5C45.1402 92.5 53.8333 83.8069 53.8333 73.0833H41.8333C41.8333 77.1795 38.5128 80.5 34.4167 80.5V92.5ZM15 73.0833C15 83.8069 23.6931 92.5 34.4167 92.5V80.5C30.3205 80.5 27 77.1795 27 73.0833H15ZM34.4167 53.6667C23.6931 53.6667 15 62.3598 15 73.0833H27C27 68.9872 30.3205 65.6667 34.4167 65.6667L34.4167 53.6667ZM15 46.25C15 56.9735 23.6931 65.6667 34.4167 65.6667V53.6667C30.3205 53.6667 27 50.3461 27 46.25H15ZM34.4093 26.8333C23.6891 26.8373 15 35.5289 15 46.25H27C27 42.1548 30.319 38.8349 34.4138 38.8333L34.4093 26.8333ZM15 19.4167C15 30.1378 23.6891 38.8293 34.4093 38.8333L34.4138 26.8333C30.319 26.8318 27 23.5118 27 19.4167H15ZM34.4167 0C23.6931 0 15 8.69313 15 19.4167H27C27 15.3205 30.3205 12 34.4167 12V0ZM47.8333 0H34.4167V12H47.8333V0ZM49.75 0H47.8333V12H49.75V0ZM61.25 0H49.75V12H61.25V0ZM80.6667 19.4167C80.6667 8.69313 71.9735 0 61.25 0V12C65.3461 12 68.6667 15.3205 68.6667 19.4167H80.6667ZM61.2573 38.8333C71.9775 38.8293 80.6667 30.1378 80.6667 19.4167H68.6667C68.6667 23.5118 65.3476 26.8318 61.2529 26.8333L61.2573 38.8333ZM80.6667 46.25C80.6667 35.5289 71.9775 26.8373 61.2573 26.8333L61.2529 38.8333C65.3476 38.8349 68.6667 42.1548 68.6667 46.25H80.6667ZM61.25 65.6667C71.9735 65.6667 80.6667 56.9735 80.6667 46.25H68.6667C68.6667 50.3461 65.3461 53.6667 61.25 53.6667V65.6667ZM41.8333 46.25C41.8333 56.9735 50.5265 65.6667 61.25 65.6667V53.6667C57.1539 53.6667 53.8333 50.3461 53.8333 46.25H41.8333ZM61.2396 26.8333C50.5208 26.839 41.8333 35.5299 41.8333 46.25H53.8333C53.8333 42.1552 57.1517 38.8355 61.2459 38.8333L61.2396 26.8333ZM49.75 38.8333H61.2428V26.8333H49.75V38.8333Z" fill="white" mask="url(#path-1-outside-1_300_5160)"/>
<path d="M49.8333 32.5833H34.4999C27.0901 32.5833 21.0833 26.5765 21.0833 19.1667C21.0833 11.7568 27.0901 5.75 34.4999 5.75H49.8333V32.5833Z" fill="url(#paint0_linear_300_5160)"/>
<path d="M47.9166 59.4166H34.4999C27.0901 59.4166 21.0833 53.4098 21.0833 45.9999C21.0833 38.5901 27.0901 32.5833 34.4999 32.5833H47.9166V59.4166Z" fill="url(#paint1_linear_300_5160)"/>
<path d="M34.4999 86.2501C27.0901 86.2501 21.0833 80.2432 21.0833 72.8334C21.0833 65.4236 27.0901 59.4167 34.4999 59.4167H47.9166V72.8334C47.9166 80.2432 41.9098 86.2501 34.4999 86.2501Z" fill="url(#paint2_linear_300_5160)"/>
<path d="M61.3334 32.5833H47.9167V5.75H61.3334C68.7432 5.75 74.7501 11.7568 74.7501 19.1667C74.7501 26.5765 68.7432 32.5833 61.3334 32.5833Z" fill="url(#paint3_linear_300_5160)"/>
<path d="M61.3334 59.4166C68.7432 59.4166 74.7501 53.4097 74.7501 45.9999C74.7501 38.5901 68.7432 32.5833 61.3334 32.5833C53.9236 32.5833 47.9167 38.5901 47.9167 45.9999C47.9167 53.4097 53.9236 59.4166 61.3334 59.4166Z" fill="url(#paint4_linear_300_5160)"/>
<defs>
<linearGradient id="paint0_linear_300_5160" x1="31.2588" y1="2.11025" x2="44.1273" y2="37.4632" gradientUnits="userSpaceOnUse">
<stop stop-color="#F44F5A"/>
<stop offset="0.443" stop-color="#EE3D4A"/>
<stop offset="1" stop-color="#E52030"/>
</linearGradient>
<linearGradient id="paint1_linear_300_5160" x1="29.9766" y1="28.0523" x2="42.7684" y2="63.1943" gradientUnits="userSpaceOnUse">
<stop stop-color="#AE4CD5"/>
<stop offset="1" stop-color="#9331BF"/>
</linearGradient>
<linearGradient id="paint2_linear_300_5160" x1="28.3858" y1="50.5177" x2="41.8235" y2="87.4327" gradientUnits="userSpaceOnUse">
<stop stop-color="#33C481"/>
<stop offset="1" stop-color="#21A366"/>
</linearGradient>
<linearGradient id="paint3_linear_300_5160" x1="52.7046" y1="0.981333" x2="65.3948" y2="35.8455" gradientUnits="userSpaceOnUse">
<stop stop-color="#F09CA2"/>
<stop offset="1" stop-color="#EB6773"/>
</linearGradient>
<linearGradient id="paint4_linear_300_5160" x1="55.0352" y1="28.6963" x2="66.8093" y2="61.0458" gradientUnits="userSpaceOnUse">
<stop stop-color="#32BDEF"/>
<stop offset="1" stop-color="#1EA2E4"/>
</linearGradient>
</defs>
</svg>
