<svg width="92" height="102" viewBox="0 0 92 102" fill="none" xmlns="http://www.w3.org/2000/svg">
<mask id="path-1-outside-1_300_5174" maskUnits="userSpaceOnUse" x="4" y="0" width="85" height="102" fill="black">
<rect fill="white" x="4" width="85" height="102"/>
<path fill-rule="evenodd" clip-rule="evenodd" d="M61.4797 9.89732L57.9339 15.8716C63.7297 19.2416 67.9262 25.0582 69.0806 31.9198H76.125C79.8299 31.9198 82.8333 34.9232 82.8333 38.6282V83.6698V88.4615C82.8333 92.1664 79.8299 95.1698 76.125 95.1698H74.2083C73.6793 95.1698 73.25 94.7405 73.25 94.2115V83.6698H64.4966H63.4386H62.3779L65.1387 89.5367C65.9283 91.2138 65.5488 93.2991 64.0577 94.3993C63.3466 94.9245 62.5397 95.1698 61.7519 95.1698C60.3125 95.1698 58.9344 94.3572 58.2827 92.9676L53.9072 83.6698H52.8452H51.7872H41.0462H39.9863H38.9281L34.5525 92.9676C33.5616 95.074 30.8974 95.8579 28.8907 94.4817C27.3171 93.4026 26.8897 91.2483 27.7023 89.5214L30.4558 83.6698H29.3948H28.3368H16.7083C13.0034 83.6698 10 80.6664 10 76.9615V33.8365V25.2115C10 21.5066 13.0034 18.5032 16.7083 18.5032H31.2464C32.3716 17.5134 33.5941 16.6316 34.8975 15.8735L31.3517 9.89924C30.8112 8.98882 31.1102 7.81199 32.0206 7.27149C32.9329 6.72907 34.1078 7.0319 34.6483 7.9404L38.3763 14.2194C40.8794 13.2822 43.5838 12.7532 46.4167 12.7532C49.2495 12.7532 51.9539 13.2822 54.4552 14.2175L58.1831 7.93849C58.7255 7.02999 59.9004 6.72715 60.8108 7.26957C61.7193 7.81007 62.0202 8.9869 61.4797 9.89732Z"/>
</mask>
<path fill-rule="evenodd" clip-rule="evenodd" d="M61.4797 9.89732L57.9339 15.8716C63.7297 19.2416 67.9262 25.0582 69.0806 31.9198H76.125C79.8299 31.9198 82.8333 34.9232 82.8333 38.6282V83.6698V88.4615C82.8333 92.1664 79.8299 95.1698 76.125 95.1698H74.2083C73.6793 95.1698 73.25 94.7405 73.25 94.2115V83.6698H64.4966H63.4386H62.3779L65.1387 89.5367C65.9283 91.2138 65.5488 93.2991 64.0577 94.3993C63.3466 94.9245 62.5397 95.1698 61.7519 95.1698C60.3125 95.1698 58.9344 94.3572 58.2827 92.9676L53.9072 83.6698H52.8452H51.7872H41.0462H39.9863H38.9281L34.5525 92.9676C33.5616 95.074 30.8974 95.8579 28.8907 94.4817C27.3171 93.4026 26.8897 91.2483 27.7023 89.5214L30.4558 83.6698H29.3948H28.3368H16.7083C13.0034 83.6698 10 80.6664 10 76.9615V33.8365V25.2115C10 21.5066 13.0034 18.5032 16.7083 18.5032H31.2464C32.3716 17.5134 33.5941 16.6316 34.8975 15.8735L31.3517 9.89924C30.8112 8.98882 31.1102 7.81199 32.0206 7.27149C32.9329 6.72907 34.1078 7.0319 34.6483 7.9404L38.3763 14.2194C40.8794 13.2822 43.5838 12.7532 46.4167 12.7532C49.2495 12.7532 51.9539 13.2822 54.4552 14.2175L58.1831 7.93849C58.7255 7.02999 59.9004 6.72715 60.8108 7.26957C61.7193 7.81007 62.0202 8.9869 61.4797 9.89732Z" fill="white"/>
<path d="M57.9339 15.8716L52.7743 12.8092L49.6844 18.0153L54.9179 21.0585L57.9339 15.8716ZM61.4797 9.89732L56.3205 6.83434L56.3201 6.83497L61.4797 9.89732ZM69.0806 31.9198L63.1638 32.9153L64.0058 37.9198H69.0806V31.9198ZM73.25 83.6698H79.25V77.6698H73.25V83.6698ZM62.3779 83.6698V77.6698H52.9233L56.9489 86.2245L62.3779 83.6698ZM65.1387 89.5367L59.7097 92.0915L59.7103 92.0927L65.1387 89.5367ZM64.0577 94.3993L60.4955 89.5712L60.4931 89.5729L64.0577 94.3993ZM58.2827 92.9676L63.7151 90.42L63.7116 90.4127L58.2827 92.9676ZM53.9072 83.6698L59.336 81.115L57.7147 77.6698H53.9072V83.6698ZM38.9281 83.6698V77.6698H35.1205L33.4992 81.115L38.9281 83.6698ZM34.5525 92.9676L29.1236 90.4127L29.1232 90.4135L34.5525 92.9676ZM28.8907 94.4817L32.284 89.5335L32.284 89.5334L28.8907 94.4817ZM27.7023 89.5214L33.1312 92.0762L33.1313 92.0761L27.7023 89.5214ZM30.4558 83.6698L35.8848 86.2245L39.9103 77.6698H30.4558V83.6698ZM31.2464 18.5032V24.5032H33.5097L35.2091 23.0084L31.2464 18.5032ZM34.8975 15.8735L37.9142 21.06L43.1467 18.0165L40.0571 12.8111L34.8975 15.8735ZM31.3517 9.89924L36.5113 6.83688L36.5109 6.83625L31.3517 9.89924ZM32.0206 7.27149L35.0836 12.4308L35.0868 12.4288L32.0206 7.27149ZM34.6483 7.9404L39.8076 4.87732L39.8048 4.87265L34.6483 7.9404ZM38.3763 14.2194L33.217 17.2825L35.7795 21.5985L40.4802 19.8384L38.3763 14.2194ZM54.4552 14.2175L52.3536 19.8374L57.053 21.5947L59.6144 17.2806L54.4552 14.2175ZM58.1831 7.93849L53.0314 4.86271L53.0276 4.86905L53.0239 4.8754L58.1831 7.93849ZM60.8108 7.26957L57.7398 12.4241L57.7431 12.426L60.8108 7.26957ZM63.0936 18.9339L66.6394 12.9597L56.3201 6.83497L52.7743 12.8092L63.0936 18.9339ZM74.9975 30.9243C73.5376 22.2477 68.2377 14.9223 60.9499 10.6847L54.9179 21.0585C59.2217 23.561 62.3147 27.8686 63.1638 32.9153L74.9975 30.9243ZM76.125 25.9198H69.0806V37.9198H76.125V25.9198ZM88.8333 38.6282C88.8333 31.6095 83.1436 25.9198 76.125 25.9198V37.9198C76.5162 37.9198 76.8333 38.2369 76.8333 38.6282H88.8333ZM88.8333 83.6698V38.6282H76.8333V83.6698H88.8333ZM88.8333 88.4615V83.6698H76.8333V88.4615H88.8333ZM76.125 101.17C83.1436 101.17 88.8333 95.4801 88.8333 88.4615H76.8333C76.8333 88.8527 76.5162 89.1698 76.125 89.1698V101.17ZM74.2083 101.17H76.125V89.1698H74.2083V101.17ZM67.25 94.2115C67.25 98.0542 70.3656 101.17 74.2083 101.17V89.1698C76.993 89.1698 79.25 91.4268 79.25 94.2115H67.25ZM67.25 83.6698V94.2115H79.25V83.6698H67.25ZM64.4966 89.6698H73.25V77.6698H64.4966V89.6698ZM63.4386 89.6698H64.4966V77.6698H63.4386V89.6698ZM62.3779 89.6698H63.4386V77.6698H62.3779V89.6698ZM70.5676 86.982L67.8068 81.1151L56.9489 86.2245L59.7097 92.0915L70.5676 86.982ZM67.6198 99.2275C71.7436 96.185 72.3945 90.862 70.567 86.9808L59.7103 92.0927C59.5465 91.7448 59.4968 91.3543 59.5818 90.9501C59.6714 90.5237 59.9417 89.9797 60.4955 89.5712L67.6198 99.2275ZM61.7519 101.17C63.8007 101.17 65.8614 100.526 67.6222 99.2257L60.4931 89.5729C60.8317 89.3228 61.2786 89.1698 61.7519 89.1698V101.17ZM52.8504 95.5151C54.529 99.0943 58.0782 101.17 61.7519 101.17V89.1698C62.5468 89.1698 63.3399 89.62 63.7151 90.42L52.8504 95.5151ZM48.4783 86.2247L52.8539 95.5224L63.7116 90.4127L59.336 81.115L48.4783 86.2247ZM52.8452 89.6698H53.9072V77.6698H52.8452V89.6698ZM51.7872 89.6698H52.8452V77.6698H51.7872V89.6698ZM41.0462 89.6698H51.7872V77.6698H41.0462V89.6698ZM39.9863 89.6698H41.0462V77.6698H39.9863V89.6698ZM38.9281 89.6698H39.9863V77.6698H38.9281V89.6698ZM39.9814 95.5224L44.357 86.2247L33.4992 81.115L29.1236 90.4127L39.9814 95.5224ZM25.4973 99.43C30.5982 102.928 37.4392 100.926 39.9817 95.5216L29.1232 90.4135C29.684 89.2216 31.1967 88.7878 32.284 89.5335L25.4973 99.43ZM22.2734 86.9666C20.3987 90.9504 21.1461 96.4461 25.4974 99.43L32.284 89.5334C32.8668 89.9331 33.155 90.4857 33.2527 90.9157C33.3449 91.3219 33.2992 91.7194 33.1312 92.0762L22.2734 86.9666ZM25.0269 81.1152L22.2734 86.9668L33.1313 92.0761L35.8848 86.2245L25.0269 81.1152ZM29.3948 89.6698H30.4558V77.6698H29.3948V89.6698ZM28.3368 89.6698H29.3948V77.6698H28.3368V89.6698ZM16.7083 89.6698H28.3368V77.6698H16.7083V89.6698ZM4 76.9615C4 83.9801 9.68971 89.6698 16.7083 89.6698V77.6698C16.3171 77.6698 16 77.3527 16 76.9615H4ZM4 33.8365V76.9615H16V33.8365H4ZM4 25.2115V33.8365H16V25.2115H4ZM16.7083 12.5032C9.68971 12.5032 4 18.1929 4 25.2115H16C16 24.8203 16.3171 24.5032 16.7083 24.5032V12.5032ZM31.2464 12.5032H16.7083V24.5032H31.2464V12.5032ZM31.8808 10.687C30.239 11.642 28.6999 12.7523 27.2838 13.9979L35.2091 23.0084C36.0434 22.2746 36.9493 21.6212 37.9142 21.06L31.8808 10.687ZM26.192 12.9616L29.7378 18.9358L40.0571 12.8111L36.5113 6.83688L26.192 12.9616ZM28.9576 2.11221C25.1928 4.3473 23.9632 9.20739 26.1924 12.9622L36.5109 6.83625C37.6591 8.77025 37.0275 11.2767 35.0836 12.4308L28.9576 2.11221ZM39.8048 4.87265C37.5781 1.12988 32.7274 -0.129057 28.9543 2.11414L35.0868 12.4288C33.1385 13.5872 30.6376 12.9339 29.4919 11.0082L39.8048 4.87265ZM43.5355 11.1563L39.8075 4.87732L29.4891 11.0035L33.217 17.2825L43.5355 11.1563ZM46.4167 6.75315C42.8295 6.75315 39.4139 7.42409 36.2723 8.60037L40.4802 19.8384C42.3449 19.1402 44.3382 18.7532 46.4167 18.7532V6.75315ZM56.5567 8.59757C53.4183 7.42397 50.0035 6.75315 46.4167 6.75315V18.7532C48.4955 18.7532 50.4895 19.1403 52.3536 19.8374L56.5567 8.59757ZM53.0239 4.8754L49.296 11.1544L59.6144 17.2806L63.3423 11.0016L53.0239 4.8754ZM63.8818 2.11506C60.1016 -0.137187 55.2565 1.13591 53.0314 4.86271L63.3347 11.0143C62.1945 12.9241 59.6993 13.5915 57.7398 12.4241L63.8818 2.11506ZM66.639 12.9603C68.8725 9.19825 67.6289 4.34435 63.8786 2.11313L57.7431 12.426C55.8097 11.2758 55.168 8.77555 56.3205 6.83434L66.639 12.9603Z" fill="white" mask="url(#path-1-outside-1_300_5174)"/>
<path d="M34.7395 18.4167L34.4999 33.7501H9.58325C9.58325 33.7501 9.58325 28.83 9.58325 25.1251C9.58325 21.4202 12.5867 18.4167 16.2916 18.4167C19.9965 18.4167 34.7395 18.4167 34.7395 18.4167Z" fill="url(#paint0_linear_300_5174)"/>
<path d="M57.5174 15.7851L61.0632 9.81089C61.6037 8.90048 61.3028 7.72364 60.3943 7.18314C59.4839 6.64073 58.3089 6.94356 57.7665 7.85206L54.0386 14.1311C51.5374 13.1957 48.8329 12.6667 46.0001 12.6667C43.1673 12.6667 40.4629 13.1957 37.9597 14.133L34.2318 7.85398C33.6913 6.94548 32.5164 6.64264 31.604 7.18506C30.6936 7.72556 30.3946 8.90239 30.9351 9.81281L34.4809 15.7871C28.154 19.4671 23.7323 26.0642 23.0959 33.752H68.9043C68.268 26.0623 63.8462 19.4651 57.5174 15.7851Z" fill="url(#paint1_linear_300_5174)"/>
<path d="M57.5174 15.7851L61.0632 9.81089C61.6037 8.90048 61.3028 7.72364 60.3943 7.18314C59.4839 6.64073 58.3089 6.94356 57.7665 7.85206L54.0386 14.1311C51.5374 13.1957 48.8329 12.6667 46.0001 12.6667C43.1673 12.6667 40.4629 13.1957 37.9597 14.133L34.2318 7.85398C33.6913 6.94548 32.5164 6.64264 31.604 7.18506C30.6936 7.72556 30.3946 8.90239 30.9351 9.81281L34.4809 15.7871C28.154 19.4671 23.7323 26.0642 23.0959 33.752H68.9043C68.268 26.0623 63.8462 19.4651 57.5174 15.7851Z" fill="url(#paint2_linear_300_5174)"/>
<path opacity="0.05" d="M36.4166 27.9999C34.3025 27.9999 32.5833 26.2807 32.5833 24.1666C32.5833 22.0525 34.3025 20.3333 36.4166 20.3333C38.5307 20.3333 40.2499 22.0525 40.2499 24.1666C40.2499 26.2807 38.5307 27.9999 36.4166 27.9999Z" fill="black"/>
<path opacity="0.05" d="M36.4167 27.0417C34.8317 27.0417 33.5417 25.7518 33.5417 24.1667C33.5417 22.5817 34.8317 21.2917 36.4167 21.2917C38.0018 21.2917 39.2917 22.5817 39.2917 24.1667C39.2917 25.7518 38.0018 27.0417 36.4167 27.0417Z" fill="black"/>
<path d="M36.4167 26.0833C37.4752 26.0833 38.3333 25.2252 38.3333 24.1667C38.3333 23.1081 37.4752 22.25 36.4167 22.25C35.3581 22.25 34.5 23.1081 34.5 24.1667C34.5 25.2252 35.3581 26.0833 36.4167 26.0833Z" fill="white"/>
<path opacity="0.05" d="M55.5833 27.9999C53.4692 27.9999 51.75 26.2807 51.75 24.1666C51.75 22.0525 53.4692 20.3333 55.5833 20.3333C57.6974 20.3333 59.4167 22.0525 59.4167 24.1666C59.4167 26.2807 57.6974 27.9999 55.5833 27.9999Z" fill="black"/>
<path opacity="0.05" d="M55.5833 27.0415C53.9982 27.0415 52.7083 25.7516 52.7083 24.1665C52.7083 22.5814 53.9982 21.2915 55.5833 21.2915C57.1683 21.2915 58.4583 22.5814 58.4583 24.1665C58.4583 25.7516 57.1683 27.0415 55.5833 27.0415Z" fill="black"/>
<path d="M55.5834 26.0833C56.642 26.0833 57.5001 25.2252 57.5001 24.1667C57.5001 23.1081 56.642 22.25 55.5834 22.25C54.5249 22.25 53.6667 23.1081 53.6667 24.1667C53.6667 25.2252 54.5249 26.0833 55.5834 26.0833Z" fill="white"/>
<path d="M75.7083 31.8333C74.7614 31.8333 17.9399 31.8333 16.2916 31.8333C12.5867 31.8333 9.58325 28.8299 9.58325 25.125C9.58325 25.125 9.58325 73.1701 9.58325 76.875C9.58325 80.5799 12.5867 83.5833 16.2916 83.5833C17.9399 83.5833 82.4166 83.5833 82.4166 83.5833C82.4166 83.5833 82.4166 42.2466 82.4166 38.5417C82.4166 34.8368 79.4132 31.8333 75.7083 31.8333Z" fill="url(#paint3_linear_300_5174)"/>
<path d="M75.7083 45.2501H73.7916C73.2626 45.2501 72.8333 45.6794 72.8333 46.2084V94.1251C72.8333 94.6541 73.2626 95.0834 73.7916 95.0834H75.7083C79.4132 95.0834 82.4166 92.08 82.4166 88.3751V38.5417C82.4166 42.2467 79.4132 45.2501 75.7083 45.2501Z" fill="url(#paint4_linear_300_5174)"/>
<path opacity="0.05" d="M28.978 83.5832H39.5695L43.9012 74.3793C44.2941 73.5456 45.078 73.0473 45.9999 73.0473C46.9219 73.0473 47.7058 73.5456 48.0987 74.3793L52.4284 83.5832H63.0219L51.6445 59.4102C53.5248 57.7753 54.6249 55.4024 54.6249 52.9165C54.6249 49.2576 52.2962 46.0242 48.8749 44.8148V41.4165C48.8749 39.8314 47.585 38.5415 45.9999 38.5415C44.4149 38.5415 43.1249 39.8314 43.1249 41.4165V44.8148C39.7037 46.0242 37.3749 49.2576 37.3749 52.9165C37.3749 55.4024 38.4751 57.7753 40.3554 59.4102L28.978 83.5832ZM45.9999 50.0415C47.585 50.0415 48.8749 51.3314 48.8749 52.9165C48.8749 54.5016 47.585 55.7915 45.9999 55.7915C44.4149 55.7915 43.1249 54.5016 43.1249 52.9165C43.1249 51.3314 44.4149 50.0415 45.9999 50.0415Z" fill="black"/>
<path opacity="0.05" d="M27.9199 83.5833H40.6293L44.7693 74.7877C45.1009 74.0823 45.7411 74.0057 46.0018 74.0057C46.2624 74.0057 46.9007 74.0823 47.2342 74.7877L51.3703 83.5833H64.0798L52.8078 59.6307C54.5673 57.8482 55.5832 55.4351 55.5832 52.9166C55.5832 49.0813 53.2813 45.6678 49.8332 44.1632V41.4166C49.8332 39.3025 48.1139 37.5833 45.9998 37.5833C43.8858 37.5833 42.1665 39.3025 42.1665 41.4166V44.1632C38.7184 45.6678 36.4165 49.0794 36.4165 52.9166C36.4165 55.4351 37.4323 57.8482 39.1918 59.6307L27.9199 83.5833ZM45.9998 50.9999C47.0559 50.9999 47.9165 51.8605 47.9165 52.9166C47.9165 53.9727 47.0559 54.8333 45.9998 54.8333C44.9438 54.8333 44.0832 53.9727 44.0832 52.9166C44.0832 51.8605 44.9438 50.9999 45.9998 50.9999Z" fill="black"/>
<path d="M64.7219 89.4502L50.4543 59.1305C52.392 57.7371 53.6666 55.4792 53.6666 52.9167C53.6666 49.3555 51.2133 46.3789 47.9166 45.5222V41.4167C47.9166 40.3587 47.0579 39.5 45.9999 39.5C44.9419 39.5 44.0833 40.3587 44.0833 41.4167V45.5222C40.7866 46.3789 38.3333 49.3555 38.3333 52.9167C38.3333 55.4792 39.6079 57.7371 41.5456 59.1305L27.2856 89.4349C26.4729 91.1618 26.9004 93.3162 28.4739 94.3952C30.4807 95.7714 33.1449 94.9875 34.1358 92.8811L43.0349 73.9712C44.2155 71.4623 47.7863 71.4623 48.9669 73.9712L57.866 92.8811C58.5177 94.2707 59.8958 95.0833 61.3352 95.0833C62.1229 95.0833 62.9298 94.838 63.6409 94.3128C65.1321 93.2127 65.5116 91.1273 64.7219 89.4502ZM45.9999 49.0833C48.114 49.0833 49.8333 50.8026 49.8333 52.9167C49.8333 55.0307 48.114 56.75 45.9999 56.75C43.8859 56.75 42.1666 55.0307 42.1666 52.9167C42.1666 50.8026 43.8859 49.0833 45.9999 49.0833Z" fill="url(#paint5_linear_300_5174)"/>
<defs>
<linearGradient id="paint0_linear_300_5174" x1="9.58325" y1="26.0834" x2="34.7395" y2="26.0834" gradientUnits="userSpaceOnUse">
<stop offset="0.143" stop-color="#073042"/>
<stop offset="1" stop-color="#073042"/>
</linearGradient>
<linearGradient id="paint1_linear_300_5174" x1="41.0494" y1="5.39298" x2="46.738" y2="37.6581" gradientUnits="userSpaceOnUse">
<stop stop-color="#3DDC84"/>
<stop offset="0.794" stop-color="#37C777"/>
</linearGradient>
<linearGradient id="paint2_linear_300_5174" x1="46.0001" y1="6.91673" x2="46.0001" y2="33.7501" gradientUnits="userSpaceOnUse">
<stop offset="0.772" stop-opacity="0"/>
<stop offset="0.94" stop-opacity="0.15"/>
</linearGradient>
<linearGradient id="paint3_linear_300_5174" x1="39.3299" y1="19.8791" x2="51.5218" y2="89.0305" gradientUnits="userSpaceOnUse">
<stop offset="0.155" stop-color="#4F8FFF"/>
<stop offset="0.925" stop-color="#3F73CC"/>
</linearGradient>
<linearGradient id="paint4_linear_300_5174" x1="73.0096" y1="40.1997" x2="82.4952" y2="93.9909" gradientUnits="userSpaceOnUse">
<stop offset="0.143" stop-color="#073042"/>
<stop offset="1" stop-color="#073042"/>
</linearGradient>
<linearGradient id="paint5_linear_300_5174" x1="37.1488" y1="41.0314" x2="47.1327" y2="97.6478" gradientUnits="userSpaceOnUse">
<stop stop-color="#073042"/>
<stop offset="0.857" stop-color="#073042"/>
</linearGradient>
</defs>
</svg>
